<svg width="167" height="64" viewBox="0 0 167 64" fill="none" xmlns="http://www.w3.org/2000/svg">
<path d="M63.5117 38.241C63.5117 38.2386 63.5117 38.2362 63.5093 38.2337C62.2547 29.2306 57.2098 21.2659 49.8017 16.2221H49.7992C46.1572 13.7403 41.9705 11.9887 37.441 11.1784C37.4386 11.1856 37.4435 11.1711 37.441 11.1784C46.9717 13.6238 53.8935 22.3843 53.5969 32.615C53.5094 35.6549 52.7873 38.5273 51.5741 41.1183L53.772 45.1456L55.7608 48.7895C55.8896 49.0224 55.683 49.299 55.4228 49.2432L49.9281 48.0981L46.9984 47.4867C44.076 50.2912 40.3683 52.2782 36.2521 53.0885C36.2473 53.0885 36.2424 53.0909 36.2375 53.0909C35.4693 53.2462 34.6888 53.3554 33.8962 53.4209C33.8816 53.4209 33.867 53.4233 33.85 53.4257C33.7017 53.4378 33.5558 53.45 33.41 53.4572C33.3419 53.4597 33.2738 53.4669 33.2082 53.4694C33.0963 53.4767 32.9845 53.4815 32.8727 53.4815C32.7827 53.4888 32.6903 53.4912 32.6003 53.4912C32.4204 53.4961 32.2381 53.4985 32.0582 53.4985C31.8539 53.5009 31.6473 53.4961 31.4431 53.4912C31.2388 53.4864 31.0297 53.4767 30.8279 53.4645C30.6261 53.4548 30.4244 53.4403 30.2226 53.4233C30.0208 53.4087 29.819 53.3869 29.6196 53.3626C28.6009 53.2486 27.6041 53.0618 26.6364 52.8119C26.634 52.8095 26.6291 52.8095 26.6267 52.8095C15.1291 49.8327 8.19756 38.0324 11.2123 26.5741C11.2196 26.3582 12.1071 20.64 15.8804 14.8708C9.5299 18.4929 4.52389 24.2208 1.84705 31.1351C0.876965 33.6315 0.315338 36.2128 0.308044 36.4288C0.56576 38.2726 1.00582 40.177 1.52125 41.7467C1.52125 41.7515 1.52369 41.754 1.52369 41.7564C2.67125 45.4537 4.80592 49.2941 7.13995 52.1156V52.1181C11.0081 56.9241 16.4323 60.7281 23.1645 62.7418C23.1913 62.749 23.218 62.7587 23.2448 62.7636C23.4028 62.8073 23.5633 62.8534 23.7213 62.8946C23.7262 62.8946 23.731 62.897 23.7359 62.897C23.8137 62.9237 24.4653 63.0863 24.4653 63.0863C42.5346 67.2712 59.8623 56.2472 63.5117 38.241Z" fill="#059657"/>
<path d="M49.8042 16.2198C45.5834 8.29628 38.1121 2.32575 29.1115 0.132599C31.7203 -0.102728 34.4068 -0.0323738 37.1688 0.404316C51.421 2.64842 62.5027 14.262 63.9518 28.5878C64.2897 31.9261 64.122 35.1649 63.5117 38.2387C62.2475 29.1313 57.1247 21.2077 49.8042 16.2198Z" fill="#1AAFE6"/>
<path d="M24.458 63.0815C24.0131 62.8437 14.5967 61.2838 7.13266 52.1133V52.1109C3.34715 47.5353 0.72866 41.4459 0.132996 34.9392C2.32845 25.958 8.31184 18.5027 16.2548 14.2959C16.126 14.4852 15.9996 14.672 15.8756 14.866C19.4836 12.8088 23.5317 11.4356 27.8278 10.9092C27.8302 10.9092 27.8326 10.9067 27.835 10.9092C27.8521 10.9067 27.8667 10.9043 27.8861 10.9043C16.2621 13.1872 8.61088 24.4684 10.9255 36.1644C12.4061 49.2724 22.4911 60.9174 36.4928 63.688C32.7803 64.2217 28.8683 64.1029 24.458 63.0815Z" fill="#FFC62B"/>
<path d="M49.8017 16.2185C46.1742 13.7488 42.007 11.9972 37.4994 11.1845C37.4799 11.182 37.4605 11.1796 37.4435 11.1748C35.9166 10.7842 34.3241 10.5488 32.683 10.5003C31.0395 10.4542 29.4348 10.5974 27.8861 10.9006C27.8691 10.903 27.8521 10.903 27.8375 10.9055C27.835 10.903 27.8326 10.9055 27.8302 10.9055C14.1153 12.5746 2.98004 22.929 0.303201 36.4203C0.0625038 34.676 -0.0396107 32.8904 0.0138775 31.0708C0.485546 14.7168 13.1793 1.58213 29.1115 0.131348C38.1121 2.3245 45.5834 8.29502 49.8017 16.2185Z" fill="#1AAFE6"/>
<path d="M22.5957 26.9721H22.5422L19.1894 28.5636L18.5135 25.4898L23.1622 23.333H26.5684V40.8637H22.5957V26.9721Z" fill="#059657"/>
<path d="M33.6507 37.8962C34.1637 37.9496 34.6232 37.9496 35.4352 37.8962C36.6776 37.8162 37.9492 37.4644 38.8949 36.8166C40.0303 36.0354 40.7865 34.9025 41.1123 33.5803L41.032 33.5536C40.2492 34.3615 39.1137 34.8224 37.5188 34.8224C34.5454 34.8224 32.0314 32.7457 32.0314 29.3468C32.0314 25.9212 34.7885 23.0366 38.6542 23.0366C43.1691 23.0366 45.3038 26.4889 45.3038 30.5889C45.3038 34.2304 44.1416 36.9015 42.2234 38.6531C40.5482 40.1646 38.2506 40.9991 35.5203 41.1083C34.8177 41.1617 34.115 41.135 33.6555 41.1083V37.8962H33.6507ZM38.5157 26.0279C37.1371 26.0279 36.1111 27.2677 36.1379 29.1018C36.1379 30.6132 36.9475 31.9063 38.6251 31.9063C39.7337 31.9063 40.5166 31.3677 40.8959 30.7466C41.032 30.504 41.1123 30.2347 41.1123 29.7228C41.1123 27.862 40.4096 26.0279 38.5448 26.0279H38.5157Z" fill="#059657"/>
<path d="M76.327 17.3099L75.4833 19.1198H73.0447V18.8068L78.0775 8.10791H79.157L84.1581 18.8068V19.1198H81.7366L80.8759 17.3099H76.327ZM77.0928 15.3448H80.1246L78.6075 11.7421L77.0928 15.3448Z" fill="#010101"/>
<path d="M85.3617 19.1044V8.18713C86.925 8.17258 88.4713 8.18713 90.0346 8.18713C92.5826 8.18713 93.9271 10.1061 93.9271 12.1634C93.9271 14.1916 92.5364 16.016 90.0346 16.016H87.7055V19.1044H85.3617ZM90.0346 14.0218C91.0339 14.0218 91.6903 13.1484 91.6903 12.1028C91.6903 11.0887 91.0655 10.2323 90.0346 10.2323C89.2372 10.2177 88.4567 10.2323 87.6593 10.2323V14.0218H90.0346Z" fill="#010101"/>
<path d="M97.9265 17.0301H102.49V19.1189H95.5828V8.20166H97.9265V17.0301Z" fill="#010101"/>
<path d="M108.882 17.2654V19.1213H103.443V17.2654H104.989V10.0115H103.567V8.20166H108.755V10.0115H107.333V17.263H108.882V17.2654Z" fill="#010101"/>
<path d="M113.18 12.7116C113.851 12.7116 114.634 12.7262 115.072 12.5078C115.651 12.1949 115.869 11.37 116.166 10.1376C116.54 8.78141 117.494 7.72122 119.9 8.21856V9.81006C119.025 9.73242 118.556 9.99687 118.323 10.8242C117.994 12.0711 117.62 13.0537 116.946 13.7257L120.292 18.7792V19.1213H117.652L114.902 14.6306C114.479 14.7398 113.667 14.7398 113.183 14.7398V19.1213H110.854V8.20401H113.183V12.7116H113.18Z" fill="#010101"/>
<path d="M123.761 17.3114L122.918 19.1212H120.479V18.8083L125.512 8.10938H126.591L131.592 18.8083V19.1212H129.171L128.31 17.3114H123.761ZM124.527 15.3463H127.559L126.042 11.7436L124.527 15.3463Z" fill="#010101"/>
<path d="M134.262 15.8923C134.308 16.8894 135.402 17.3115 136.465 17.3115C137.435 17.3115 138.558 17.0786 138.558 15.9383C138.558 14.6914 137.214 14.5822 136.166 14.5046C134.182 14.3323 132.181 13.6627 132.181 11.4016C132.181 8.98528 134.165 7.97119 136.338 7.97119C138.386 7.97119 140.51 8.83002 140.51 11.2779H138.322C138.198 10.39 137.274 10.0139 136.336 10.0139C135.397 10.0139 134.476 10.5137 134.476 11.3555C134.476 12.3235 135.429 12.5419 136.569 12.6656C138.882 12.8694 140.868 13.3837 140.868 15.9408C140.868 18.5148 138.634 19.3106 136.477 19.3567C134.289 19.3567 132.023 18.2795 132.023 15.8947H134.262V15.8923Z" fill="#010101"/>
<path d="M147.641 17.2654V19.1213H142.203V17.2654H143.749V10.0115H142.327V8.20166H147.515V10.0115H146.093V17.263H147.641V17.2654Z" fill="#010101"/>
<path d="M74.421 37.8188V26.9015C75.9843 26.8869 77.5306 26.9015 79.0939 26.9015C81.6418 26.9015 82.9863 28.8205 82.9863 30.8778C82.9863 32.906 81.5957 34.7304 79.0939 34.7304H76.7647V37.8188H74.421ZM79.0939 32.7337C80.0931 32.7337 80.7496 31.8604 80.7496 30.8147C80.7496 29.8006 80.1247 28.9442 79.0939 28.9442C78.2964 28.9297 77.516 28.9442 76.7185 28.9442V32.7337H79.0939Z" fill="#010101"/>
<path d="M91.3475 28.9617H87.0028V31.1767H91.0655V33.2194H87.0028V35.7158H91.4739V37.8362H84.642V26.9189H91.3475V28.9617Z" fill="#010101"/>
<path d="M95.9256 35.7444H100.489V37.8333H93.5818V26.916H95.9256V35.7444Z" fill="#010101"/>
<path d="M103.927 36.0262L103.083 37.8361H100.645V37.5231L105.677 26.8242H106.757L111.758 37.5231V37.8361H109.337L108.476 36.0262H103.927ZM104.693 34.0611H107.725L106.207 30.4584L104.693 34.0611Z" fill="#010101"/>
<path d="M112.962 37.8188V26.9015C114.525 26.8869 116.071 26.9015 117.635 26.9015C120.183 26.9015 121.527 28.8205 121.527 30.8778C121.527 32.906 120.136 34.7304 117.635 34.7304H115.305V37.8188H112.962ZM117.635 32.7337C118.634 32.7337 119.29 31.8604 119.29 30.8147C119.29 29.8006 118.665 28.9442 117.635 28.9442C116.837 28.9297 116.057 28.9442 115.259 28.9442V32.7337H117.635Z" fill="#010101"/>
<path d="M128.138 38.0224C125.215 38.0224 122.572 36.0573 122.572 32.377C122.572 28.6966 125.276 26.7461 128.184 26.7461C131.043 26.7461 133.749 28.7112 133.749 32.377C133.747 35.6982 131.449 38.0224 128.138 38.0224ZM128.167 35.8851C129.871 35.8851 131.418 34.7618 131.418 32.377C131.418 30.0528 129.886 28.9004 128.181 28.9004C126.463 28.9004 124.931 30.0698 124.931 32.377C124.933 34.7618 126.416 35.8851 128.167 35.8851Z" fill="#010101"/>
<path d="M144.734 37.4912V37.8188H142.232L139.98 34.2161H138.026V37.8188H135.682V26.9015C137.245 26.9015 138.792 26.8869 140.355 26.9015C142.857 26.9015 144.216 28.7113 144.216 30.6449C144.216 32.0326 143.513 33.2505 142.261 33.857L144.734 37.4912ZM140.343 32.297C141.327 32.297 141.969 31.5328 141.952 30.5964C141.952 29.6769 141.342 28.9442 140.343 28.9442H137.999V32.297H140.343Z" fill="#010101"/>
<path d="M148.39 36.0262L147.547 37.8361H145.108V37.5231L150.141 26.8242H151.22L156.221 37.5231V37.8361H153.8L152.939 36.0262H148.39ZM149.156 34.0611H152.188L150.671 30.4584L149.156 34.0611Z" fill="#010101"/>
<path d="M159.737 31.5961V37.8335H157.408V26.8701H158.142L164.284 33.1075V26.9162H166.627V37.865H165.925L159.737 31.5961Z" fill="#010101"/>
<path d="M79.3905 45.5223C81.5932 45.5223 83.9394 46.7062 84.4402 49.4064H82.1743C81.6904 48.1739 80.7058 47.6281 79.3929 47.6281C77.4552 47.6281 76.1569 49.0328 76.1569 51.107C76.1569 52.9775 77.4236 54.5375 79.3759 54.5375C80.735 54.5375 81.846 53.897 82.2205 52.5724H84.4718C84.0026 55.4569 81.6734 56.6578 79.3929 56.6578C76.5167 56.6578 73.7985 54.7243 73.7985 51.1046C73.7961 47.4728 76.5143 45.4762 79.3905 45.5223Z" fill="#010101"/>
<path d="M91.2527 56.7353C88.3303 56.7353 85.6875 54.7702 85.6875 51.0899C85.6875 47.4095 88.3911 45.459 91.2989 45.459C94.1581 45.459 96.8641 47.4241 96.8641 51.0899C96.8641 54.4136 94.5665 56.7353 91.2527 56.7353ZM91.2843 54.6004C92.9886 54.6004 94.5349 53.4771 94.5349 51.0923C94.5349 48.7681 93.0032 47.6133 91.2989 47.6133C89.58 47.6133 88.0483 48.7827 88.0483 51.0923C88.0483 53.4771 89.5338 54.6004 91.2843 54.6004Z" fill="#010101"/>
<path d="M102.49 52.6494L103.647 49.1559L105.116 45.6309H107.601V45.9754L102.942 56.6427H101.972L97.2676 45.9754V45.6309H99.7524L101.221 49.1389L102.439 52.647H102.49V52.6494Z" fill="#010101"/>
<path d="M113.837 54.6922V56.5481H108.398V54.6922H109.944V47.4407H108.522V45.6309H113.71V47.4407H112.288V54.6922H113.837Z" fill="#010101"/>
<path d="M119.883 45.6479C123.37 45.6479 125.244 48.2826 125.244 51.0605C125.291 53.8529 123.416 56.5506 119.883 56.5506H115.821V45.6479H119.883ZM119.854 54.4424C121.87 54.4424 122.918 52.8194 122.918 51.0726C122.918 49.3258 121.838 47.7513 119.854 47.7513H118.15V54.4424H119.854Z" fill="#010101"/>
<path d="M126.871 50.4199H132.327V52.2904H126.871V50.4199Z" fill="#010101"/>
<path d="M133.997 47.4553V45.6309H137.858V54.7553H139.749V56.5481H133.778V54.7553H135.621V47.4553H133.997Z" fill="#010101"/>
<path d="M142.312 56.5479L144.923 52.4309C144.751 52.5085 144.517 52.5716 144.313 52.5716C142.062 52.6492 140.498 51.3392 140.498 49.0465C140.498 46.5501 142.312 45.3662 144.641 45.3662C146.953 45.3662 148.767 46.5525 148.767 49.0465C148.752 49.983 148.502 50.6841 148.018 51.4483L144.86 56.5479H142.312ZM142.81 49.0465C142.81 50.1698 143.513 50.7933 144.639 50.7933C145.764 50.7933 146.453 50.1698 146.453 49.0465C146.453 47.9403 145.764 47.3459 144.639 47.3459C143.516 47.3459 142.81 47.9403 142.81 49.0465Z" fill="#010101"/>
</svg>
