<svg width="248" height="248" viewBox="0 0 248 248" fill="none" xmlns="http://www.w3.org/2000/svg">
<rect y="128" width="8" height="8" fill="#FAFAFA"/>
<rect width="8" height="8" fill="#F5F5F5"/>
<rect y="192" width="8" height="8" fill="#FCFCFC"/>
<rect y="64" width="8" height="8" fill="#F7F7F7"/>
<rect y="160" width="8" height="8" fill="#FAFAFA"/>
<rect y="32" width="8" height="8" fill="#F5F5F5"/>
<rect y="224" width="8" height="8" fill="#FCFCFC"/>
<rect y="96" width="8" height="8" fill="#F7F7F7"/>
<rect y="144" width="8" height="8" fill="#FAFAFA"/>
<rect y="16" width="8" height="8" fill="#F5F5F5"/>
<rect y="208" width="8" height="8" fill="#FCFCFC"/>
<rect y="80" width="8" height="8" fill="#F7F7F7"/>
<rect y="176" width="8" height="8" fill="#FAFAFA"/>
<rect y="48" width="8" height="8" fill="#F5F5F5"/>
<rect y="240" width="8" height="8" fill="#FCFCFC"/>
<rect y="112" width="8" height="8" fill="#F7F7F7"/>
<rect x="96" y="128" width="8" height="8" fill="#FAFAFA"/>
<rect x="96" width="8" height="8" fill="#F5F5F5"/>
<rect x="96" y="192" width="8" height="8" fill="#FAFAFA"/>
<rect x="96" y="64" width="8" height="8" fill="#F7F7F7"/>
<rect x="96" y="160" width="8" height="8" fill="#FAFAFA"/>
<rect x="96" y="32" width="8" height="8" fill="#F5F5F5"/>
<rect x="96" y="224" width="8" height="8" fill="#FAFAFA"/>
<rect x="96" y="96" width="8" height="8" fill="#F7F7F7"/>
<rect x="96" y="144" width="8" height="8" fill="#FAFAFA"/>
<rect x="96" y="16" width="8" height="8" fill="#F5F5F5"/>
<rect x="96" y="208" width="8" height="8" fill="#FAFAFA"/>
<rect x="96" y="80" width="8" height="8" fill="#F7F7F7"/>
<rect x="96" y="176" width="8" height="8" fill="#FAFAFA"/>
<rect x="96" y="48" width="8" height="8" fill="#F5F5F5"/>
<rect x="96" y="240" width="8" height="8" fill="#FAFAFA"/>
<rect x="96" y="112" width="8" height="8" fill="#F7F7F7"/>
<rect x="48" y="128" width="8" height="8" fill="#FAFAFA"/>
<rect x="48" width="8" height="8" fill="#F5F5F5"/>
<rect x="48" y="192" width="8" height="8" fill="#FCFCFC"/>
<rect x="48" y="64" width="8" height="8" fill="#F7F7F7"/>
<rect x="48" y="160" width="8" height="8" fill="#FAFAFA"/>
<rect x="48" y="32" width="8" height="8" fill="#F5F5F5"/>
<rect x="48" y="224" width="8" height="8" fill="#FCFCFC"/>
<rect x="48" y="96" width="8" height="8" fill="#F7F7F7"/>
<rect x="48" y="144" width="8" height="8" fill="#FAFAFA"/>
<rect x="48" y="16" width="8" height="8" fill="#F5F5F5"/>
<rect x="48" y="208" width="8" height="8" fill="#FCFCFC"/>
<rect x="48" y="80" width="8" height="8" fill="#F7F7F7"/>
<rect x="48" y="176" width="8" height="8" fill="#FAFAFA"/>
<rect x="48" y="48" width="8" height="8" fill="#F5F5F5"/>
<rect x="48" y="240" width="8" height="8" fill="#FCFCFC"/>
<rect x="48" y="112" width="8" height="8" fill="#F7F7F7"/>
<rect x="144" y="128" width="8" height="8" fill="#F7F7F7"/>
<rect x="144" width="8" height="8" fill="#F5F5F5"/>
<rect x="144" y="192" width="8" height="8" fill="#F7F7F7"/>
<rect x="144" y="64" width="8" height="8" fill="#F7F7F7"/>
<rect x="144" y="160" width="8" height="8" fill="#F7F7F7"/>
<rect x="144" y="32" width="8" height="8" fill="#F5F5F5"/>
<rect x="144" y="224" width="8" height="8" fill="#F7F7F7"/>
<rect x="144" y="96" width="8" height="8" fill="#F7F7F7"/>
<rect x="144" y="144" width="8" height="8" fill="#F7F7F7"/>
<rect x="144" y="16" width="8" height="8" fill="#F5F5F5"/>
<rect x="144" y="208" width="8" height="8" fill="#F7F7F7"/>
<rect x="144" y="80" width="8" height="8" fill="#F7F7F7"/>
<rect x="144" y="176" width="8" height="8" fill="#F7F7F7"/>
<rect x="144" y="48" width="8" height="8" fill="#F5F5F5"/>
<rect x="144" y="240" width="8" height="8" fill="#F7F7F7"/>
<rect x="144" y="112" width="8" height="8" fill="#F7F7F7"/>
<rect x="208" y="128" width="8" height="8" fill="#F5F5F5"/>
<rect x="208" width="8" height="8" fill="#F5F5F5"/>
<rect x="208" y="192" width="8" height="8" fill="#F5F5F5"/>
<rect x="208" y="64" width="8" height="8" fill="#F5F5F5"/>
<rect x="208" y="160" width="8" height="8" fill="#F5F5F5"/>
<rect x="208" y="32" width="8" height="8" fill="#F5F5F5"/>
<rect x="208" y="224" width="8" height="8" fill="#F5F5F5"/>
<rect x="208" y="96" width="8" height="8" fill="#F5F5F5"/>
<rect x="208" y="144" width="8" height="8" fill="#F5F5F5"/>
<rect x="208" y="16" width="8" height="8" fill="#F5F5F5"/>
<rect x="208" y="208" width="8" height="8" fill="#F5F5F5"/>
<rect x="208" y="80" width="8" height="8" fill="#F5F5F5"/>
<rect x="208" y="176" width="8" height="8" fill="#F5F5F5"/>
<rect x="208" y="48" width="8" height="8" fill="#F5F5F5"/>
<rect x="208" y="240" width="8" height="8" fill="#F5F5F5"/>
<rect x="208" y="112" width="8" height="8" fill="#F5F5F5"/>
<rect x="16" y="128" width="8" height="8" fill="#FAFAFA"/>
<rect x="16" width="8" height="8" fill="#F5F5F5"/>
<rect x="16" y="192" width="8" height="8" fill="#FCFCFC"/>
<rect x="16" y="64" width="8" height="8" fill="#F7F7F7"/>
<rect x="16" y="160" width="8" height="8" fill="#FAFAFA"/>
<rect x="16" y="32" width="8" height="8" fill="#F5F5F5"/>
<rect x="16" y="224" width="8" height="8" fill="#FCFCFC"/>
<rect x="16" y="96" width="8" height="8" fill="#F7F7F7"/>
<rect x="16" y="144" width="8" height="8" fill="#FAFAFA"/>
<rect x="16" y="16" width="8" height="8" fill="#F5F5F5"/>
<rect x="16" y="208" width="8" height="8" fill="#FCFCFC"/>
<rect x="16" y="80" width="8" height="8" fill="#F7F7F7"/>
<rect x="16" y="176" width="8" height="8" fill="#FAFAFA"/>
<rect x="16" y="48" width="8" height="8" fill="#F5F5F5"/>
<rect x="16" y="240" width="8" height="8" fill="#FCFCFC"/>
<rect x="16" y="112" width="8" height="8" fill="#F7F7F7"/>
<rect x="112" y="128" width="8" height="8" fill="#FAFAFA"/>
<rect x="112" width="8" height="8" fill="#F5F5F5"/>
<rect x="112" y="192" width="8" height="8" fill="#FAFAFA"/>
<rect x="112" y="64" width="8" height="8" fill="#F7F7F7"/>
<rect x="112" y="160" width="8" height="8" fill="#FAFAFA"/>
<rect x="112" y="32" width="8" height="8" fill="#F5F5F5"/>
<rect x="112" y="224" width="8" height="8" fill="#FAFAFA"/>
<rect x="112" y="96" width="8" height="8" fill="#F7F7F7"/>
<rect x="112" y="144" width="8" height="8" fill="#FAFAFA"/>
<rect x="112" y="16" width="8" height="8" fill="#F5F5F5"/>
<rect x="112" y="208" width="8" height="8" fill="#FAFAFA"/>
<rect x="112" y="80" width="8" height="8" fill="#F7F7F7"/>
<rect x="112" y="176" width="8" height="8" fill="#FAFAFA"/>
<rect x="112" y="48" width="8" height="8" fill="#F5F5F5"/>
<rect x="112" y="240" width="8" height="8" fill="#FAFAFA"/>
<rect x="112" y="112" width="8" height="8" fill="#F7F7F7"/>
<rect x="64" y="128" width="8" height="8" fill="#FAFAFA"/>
<rect x="64" width="8" height="8" fill="#F5F5F5"/>
<rect x="64" y="192" width="8" height="8" fill="#FAFAFA"/>
<rect x="64" y="64" width="8" height="8" fill="#F7F7F7"/>
<rect x="64" y="160" width="8" height="8" fill="#FAFAFA"/>
<rect x="64" y="32" width="8" height="8" fill="#F5F5F5"/>
<rect x="64" y="224" width="8" height="8" fill="#FAFAFA"/>
<rect x="64" y="96" width="8" height="8" fill="#F7F7F7"/>
<rect x="64" y="144" width="8" height="8" fill="#FAFAFA"/>
<rect x="64" y="16" width="8" height="8" fill="#F5F5F5"/>
<rect x="64" y="208" width="8" height="8" fill="#FAFAFA"/>
<rect x="64" y="80" width="8" height="8" fill="#F7F7F7"/>
<rect x="64" y="176" width="8" height="8" fill="#FAFAFA"/>
<rect x="64" y="48" width="8" height="8" fill="#F5F5F5"/>
<rect x="64" y="240" width="8" height="8" fill="#FAFAFA"/>
<rect x="64" y="112" width="8" height="8" fill="#F7F7F7"/>
<rect x="160" y="128" width="8" height="8" fill="#F7F7F7"/>
<rect x="160" width="8" height="8" fill="#F5F5F5"/>
<rect x="160" y="192" width="8" height="8" fill="#F7F7F7"/>
<rect x="160" y="64" width="8" height="8" fill="#F7F7F7"/>
<rect x="160" y="160" width="8" height="8" fill="#F7F7F7"/>
<rect x="160" y="32" width="8" height="8" fill="#F5F5F5"/>
<rect x="160" y="224" width="8" height="8" fill="#F7F7F7"/>
<rect x="160" y="96" width="8" height="8" fill="#F7F7F7"/>
<rect x="160" y="144" width="8" height="8" fill="#F7F7F7"/>
<rect x="160" y="16" width="8" height="8" fill="#F5F5F5"/>
<rect x="160" y="208" width="8" height="8" fill="#F7F7F7"/>
<rect x="160" y="80" width="8" height="8" fill="#F7F7F7"/>
<rect x="160" y="176" width="8" height="8" fill="#F7F7F7"/>
<rect x="160" y="48" width="8" height="8" fill="#F5F5F5"/>
<rect x="160" y="240" width="8" height="8" fill="#F7F7F7"/>
<rect x="160" y="112" width="8" height="8" fill="#F7F7F7"/>
<rect x="224" y="128" width="8" height="8" fill="#F5F5F5"/>
<rect x="224" width="8" height="8" fill="#F5F5F5"/>
<rect x="224" y="192" width="8" height="8" fill="#F5F5F5"/>
<rect x="224" y="64" width="8" height="8" fill="#F5F5F5"/>
<rect x="224" y="160" width="8" height="8" fill="#F5F5F5"/>
<rect x="224" y="32" width="8" height="8" fill="#F5F5F5"/>
<rect x="224" y="224" width="8" height="8" fill="#F5F5F5"/>
<rect x="224" y="96" width="8" height="8" fill="#F5F5F5"/>
<rect x="224" y="144" width="8" height="8" fill="#F5F5F5"/>
<rect x="224" y="16" width="8" height="8" fill="#F5F5F5"/>
<rect x="224" y="208" width="8" height="8" fill="#F5F5F5"/>
<rect x="224" y="80" width="8" height="8" fill="#F5F5F5"/>
<rect x="224" y="176" width="8" height="8" fill="#F5F5F5"/>
<rect x="224" y="48" width="8" height="8" fill="#F5F5F5"/>
<rect x="224" y="240" width="8" height="8" fill="#F5F5F5"/>
<rect x="224" y="112" width="8" height="8" fill="#F5F5F5"/>
<rect x="32" y="128" width="8" height="8" fill="#FAFAFA"/>
<rect x="32" width="8" height="8" fill="#F5F5F5"/>
<rect x="32" y="192" width="8" height="8" fill="#FCFCFC"/>
<rect x="32" y="64" width="8" height="8" fill="#F7F7F7"/>
<rect x="32" y="160" width="8" height="8" fill="#FAFAFA"/>
<rect x="32" y="32" width="8" height="8" fill="#F5F5F5"/>
<rect x="32" y="224" width="8" height="8" fill="#FCFCFC"/>
<rect x="32" y="96" width="8" height="8" fill="#F7F7F7"/>
<rect x="32" y="144" width="8" height="8" fill="#FAFAFA"/>
<rect x="32" y="16" width="8" height="8" fill="#F5F5F5"/>
<rect x="32" y="208" width="8" height="8" fill="#FCFCFC"/>
<rect x="32" y="80" width="8" height="8" fill="#F7F7F7"/>
<rect x="32" y="176" width="8" height="8" fill="#FAFAFA"/>
<rect x="32" y="48" width="8" height="8" fill="#F5F5F5"/>
<rect x="32" y="240" width="8" height="8" fill="#FCFCFC"/>
<rect x="32" y="112" width="8" height="8" fill="#F7F7F7"/>
<rect x="128" y="128" width="8" height="8" fill="#F7F7F7"/>
<rect x="128" width="8" height="8" fill="#F5F5F5"/>
<rect x="128" y="192" width="8" height="8" fill="#F7F7F7"/>
<rect x="128" y="64" width="8" height="8" fill="#F7F7F7"/>
<rect x="128" y="160" width="8" height="8" fill="#F7F7F7"/>
<rect x="128" y="32" width="8" height="8" fill="#F5F5F5"/>
<rect x="128" y="224" width="8" height="8" fill="#F7F7F7"/>
<rect x="128" y="96" width="8" height="8" fill="#F7F7F7"/>
<rect x="128" y="144" width="8" height="8" fill="#F7F7F7"/>
<rect x="128" y="16" width="8" height="8" fill="#F5F5F5"/>
<rect x="128" y="208" width="8" height="8" fill="#F7F7F7"/>
<rect x="128" y="80" width="8" height="8" fill="#F7F7F7"/>
<rect x="128" y="176" width="8" height="8" fill="#F7F7F7"/>
<rect x="128" y="48" width="8" height="8" fill="#F5F5F5"/>
<rect x="128" y="240" width="8" height="8" fill="#F7F7F7"/>
<rect x="128" y="112" width="8" height="8" fill="#F7F7F7"/>
<rect x="192" y="128" width="8" height="8" fill="#F5F5F5"/>
<rect x="192" width="8" height="8" fill="#F5F5F5"/>
<rect x="192" y="192" width="8" height="8" fill="#F5F5F5"/>
<rect x="192" y="64" width="8" height="8" fill="#F5F5F5"/>
<rect x="192" y="160" width="8" height="8" fill="#F5F5F5"/>
<rect x="192" y="32" width="8" height="8" fill="#F5F5F5"/>
<rect x="192" y="224" width="8" height="8" fill="#F5F5F5"/>
<rect x="192" y="96" width="8" height="8" fill="#F5F5F5"/>
<rect x="192" y="144" width="8" height="8" fill="#F5F5F5"/>
<rect x="192" y="16" width="8" height="8" fill="#F5F5F5"/>
<rect x="192" y="208" width="8" height="8" fill="#F5F5F5"/>
<rect x="192" y="80" width="8" height="8" fill="#F5F5F5"/>
<rect x="192" y="176" width="8" height="8" fill="#F5F5F5"/>
<rect x="192" y="48" width="8" height="8" fill="#F5F5F5"/>
<rect x="192" y="240" width="8" height="8" fill="#F5F5F5"/>
<rect x="192" y="112" width="8" height="8" fill="#F5F5F5"/>
<rect x="80" y="128" width="8" height="8" fill="#FAFAFA"/>
<rect x="80" width="8" height="8" fill="#F5F5F5"/>
<rect x="80" y="192" width="8" height="8" fill="#FAFAFA"/>
<rect x="80" y="64" width="8" height="8" fill="#F7F7F7"/>
<rect x="80" y="160" width="8" height="8" fill="#FAFAFA"/>
<rect x="80" y="32" width="8" height="8" fill="#F5F5F5"/>
<rect x="80" y="224" width="8" height="8" fill="#FAFAFA"/>
<rect x="80" y="96" width="8" height="8" fill="#F7F7F7"/>
<rect x="80" y="144" width="8" height="8" fill="#FAFAFA"/>
<rect x="80" y="16" width="8" height="8" fill="#F5F5F5"/>
<rect x="80" y="208" width="8" height="8" fill="#FAFAFA"/>
<rect x="80" y="80" width="8" height="8" fill="#F7F7F7"/>
<rect x="80" y="176" width="8" height="8" fill="#FAFAFA"/>
<rect x="80" y="48" width="8" height="8" fill="#F5F5F5"/>
<rect x="80" y="240" width="8" height="8" fill="#FAFAFA"/>
<rect x="80" y="112" width="8" height="8" fill="#F7F7F7"/>
<rect x="176" y="128" width="8" height="8" fill="#F7F7F7"/>
<rect x="176" width="8" height="8" fill="#F5F5F5"/>
<rect x="176" y="192" width="8" height="8" fill="#F7F7F7"/>
<rect x="176" y="64" width="8" height="8" fill="#F7F7F7"/>
<rect x="176" y="160" width="8" height="8" fill="#F7F7F7"/>
<rect x="176" y="32" width="8" height="8" fill="#F5F5F5"/>
<rect x="176" y="224" width="8" height="8" fill="#F7F7F7"/>
<rect x="176" y="96" width="8" height="8" fill="#F7F7F7"/>
<rect x="176" y="144" width="8" height="8" fill="#F7F7F7"/>
<rect x="176" y="16" width="8" height="8" fill="#F5F5F5"/>
<rect x="176" y="208" width="8" height="8" fill="#F7F7F7"/>
<rect x="176" y="80" width="8" height="8" fill="#F7F7F7"/>
<rect x="176" y="176" width="8" height="8" fill="#F7F7F7"/>
<rect x="176" y="48" width="8" height="8" fill="#F5F5F5"/>
<rect x="176" y="240" width="8" height="8" fill="#F7F7F7"/>
<rect x="176" y="112" width="8" height="8" fill="#F7F7F7"/>
<rect x="240" y="128" width="8" height="8" fill="#F5F5F5"/>
<rect x="240" width="8" height="8" fill="#F5F5F5"/>
<rect x="240" y="192" width="8" height="8" fill="#F5F5F5"/>
<rect x="240" y="64" width="8" height="8" fill="#F5F5F5"/>
<rect x="240" y="160" width="8" height="8" fill="#F5F5F5"/>
<rect x="240" y="32" width="8" height="8" fill="#F5F5F5"/>
<rect x="240" y="224" width="8" height="8" fill="#F5F5F5"/>
<rect x="240" y="96" width="8" height="8" fill="#F5F5F5"/>
<rect x="240" y="144" width="8" height="8" fill="#F5F5F5"/>
<rect x="240" y="16" width="8" height="8" fill="#F5F5F5"/>
<rect x="240" y="208" width="8" height="8" fill="#F5F5F5"/>
<rect x="240" y="80" width="8" height="8" fill="#F5F5F5"/>
<rect x="240" y="176" width="8" height="8" fill="#F5F5F5"/>
<rect x="240" y="48" width="8" height="8" fill="#F5F5F5"/>
<rect x="240" y="240" width="8" height="8" fill="#F5F5F5"/>
<rect x="240" y="112" width="8" height="8" fill="#F5F5F5"/>
</svg>
