<svg width="248" height="248" viewBox="0 0 248 248" fill="none" xmlns="http://www.w3.org/2000/svg">
<rect x="248" y="120" width="8" height="8" transform="rotate(-180 248 120)" fill="#FAFAFA"/>
<rect x="248" y="248" width="8" height="8" transform="rotate(-180 248 248)" fill="#F5F5F5"/>
<rect x="248" y="56" width="8" height="8" transform="rotate(-180 248 56)" fill="#FCFCFC"/>
<rect x="248" y="184" width="8" height="8" transform="rotate(-180 248 184)" fill="#F7F7F7"/>
<rect x="248" y="88" width="8" height="8" transform="rotate(-180 248 88)" fill="#FAFAFA"/>
<rect x="248" y="216" width="8" height="8" transform="rotate(-180 248 216)" fill="#F5F5F5"/>
<rect x="248" y="24" width="8" height="8" transform="rotate(-180 248 24)" fill="#FCFCFC"/>
<rect x="248" y="152" width="8" height="8" transform="rotate(-180 248 152)" fill="#F7F7F7"/>
<rect x="248" y="104" width="8" height="8" transform="rotate(-180 248 104)" fill="#FAFAFA"/>
<rect x="248" y="232" width="8" height="8" transform="rotate(-180 248 232)" fill="#F5F5F5"/>
<rect x="248" y="40" width="8" height="8" transform="rotate(-180 248 40)" fill="#FCFCFC"/>
<rect x="248" y="168" width="8" height="8" transform="rotate(-180 248 168)" fill="#F7F7F7"/>
<rect x="248" y="72" width="8" height="8" transform="rotate(-180 248 72)" fill="#FAFAFA"/>
<rect x="248" y="200" width="8" height="8" transform="rotate(-180 248 200)" fill="#F5F5F5"/>
<rect x="248" y="8" width="8" height="8" transform="rotate(-180 248 8)" fill="#FCFCFC"/>
<rect x="248" y="136" width="8" height="8" transform="rotate(-180 248 136)" fill="#F7F7F7"/>
<rect x="152" y="120" width="8" height="8" transform="rotate(-180 152 120)" fill="#FAFAFA"/>
<rect x="152" y="248" width="8" height="8" transform="rotate(-180 152 248)" fill="#F5F5F5"/>
<rect x="152" y="56" width="8" height="8" transform="rotate(-180 152 56)" fill="#FAFAFA"/>
<rect x="152" y="184" width="8" height="8" transform="rotate(-180 152 184)" fill="#F7F7F7"/>
<rect x="152" y="88" width="8" height="8" transform="rotate(-180 152 88)" fill="#FAFAFA"/>
<rect x="152" y="216" width="8" height="8" transform="rotate(-180 152 216)" fill="#F5F5F5"/>
<rect x="152" y="24" width="8" height="8" transform="rotate(-180 152 24)" fill="#FAFAFA"/>
<rect x="152" y="152" width="8" height="8" transform="rotate(-180 152 152)" fill="#F7F7F7"/>
<rect x="152" y="104" width="8" height="8" transform="rotate(-180 152 104)" fill="#FAFAFA"/>
<rect x="152" y="232" width="8" height="8" transform="rotate(-180 152 232)" fill="#F5F5F5"/>
<rect x="152" y="40" width="8" height="8" transform="rotate(-180 152 40)" fill="#FAFAFA"/>
<rect x="152" y="168" width="8" height="8" transform="rotate(-180 152 168)" fill="#F7F7F7"/>
<rect x="152" y="72" width="8" height="8" transform="rotate(-180 152 72)" fill="#FAFAFA"/>
<rect x="152" y="200" width="8" height="8" transform="rotate(-180 152 200)" fill="#F5F5F5"/>
<rect x="152" y="8" width="8" height="8" transform="rotate(-180 152 8)" fill="#FAFAFA"/>
<rect x="152" y="136" width="8" height="8" transform="rotate(-180 152 136)" fill="#F7F7F7"/>
<rect x="200" y="120" width="8" height="8" transform="rotate(-180 200 120)" fill="#FAFAFA"/>
<rect x="200" y="248" width="8" height="8" transform="rotate(-180 200 248)" fill="#F5F5F5"/>
<rect x="200" y="56" width="8" height="8" transform="rotate(-180 200 56)" fill="#FCFCFC"/>
<rect x="200" y="184" width="8" height="8" transform="rotate(-180 200 184)" fill="#F7F7F7"/>
<rect x="200" y="88" width="8" height="8" transform="rotate(-180 200 88)" fill="#FAFAFA"/>
<rect x="200" y="216" width="8" height="8" transform="rotate(-180 200 216)" fill="#F5F5F5"/>
<rect x="200" y="24" width="8" height="8" transform="rotate(-180 200 24)" fill="#FCFCFC"/>
<rect x="200" y="152" width="8" height="8" transform="rotate(-180 200 152)" fill="#F7F7F7"/>
<rect x="200" y="104" width="8" height="8" transform="rotate(-180 200 104)" fill="#FAFAFA"/>
<rect x="200" y="232" width="8" height="8" transform="rotate(-180 200 232)" fill="#F5F5F5"/>
<rect x="200" y="40" width="8" height="8" transform="rotate(-180 200 40)" fill="#FCFCFC"/>
<rect x="200" y="168" width="8" height="8" transform="rotate(-180 200 168)" fill="#F7F7F7"/>
<rect x="200" y="72" width="8" height="8" transform="rotate(-180 200 72)" fill="#FAFAFA"/>
<rect x="200" y="200" width="8" height="8" transform="rotate(-180 200 200)" fill="#F5F5F5"/>
<rect x="200" y="8" width="8" height="8" transform="rotate(-180 200 8)" fill="#FCFCFC"/>
<rect x="200" y="136" width="8" height="8" transform="rotate(-180 200 136)" fill="#F7F7F7"/>
<rect x="104" y="120" width="8" height="8" transform="rotate(-180 104 120)" fill="#F7F7F7"/>
<rect x="104" y="248" width="8" height="8" transform="rotate(-180 104 248)" fill="#F5F5F5"/>
<rect x="104" y="56" width="8" height="8" transform="rotate(-180 104 56)" fill="#F7F7F7"/>
<rect x="104" y="184" width="8" height="8" transform="rotate(-180 104 184)" fill="#F7F7F7"/>
<rect x="104" y="88" width="8" height="8" transform="rotate(-180 104 88)" fill="#F7F7F7"/>
<rect x="104" y="216" width="8" height="8" transform="rotate(-180 104 216)" fill="#F5F5F5"/>
<rect x="104" y="24" width="8" height="8" transform="rotate(-180 104 24)" fill="#F7F7F7"/>
<rect x="104" y="152" width="8" height="8" transform="rotate(-180 104 152)" fill="#F7F7F7"/>
<rect x="104" y="104" width="8" height="8" transform="rotate(-180 104 104)" fill="#F7F7F7"/>
<rect x="104" y="232" width="8" height="8" transform="rotate(-180 104 232)" fill="#F5F5F5"/>
<rect x="104" y="40" width="8" height="8" transform="rotate(-180 104 40)" fill="#F7F7F7"/>
<rect x="104" y="168" width="8" height="8" transform="rotate(-180 104 168)" fill="#F7F7F7"/>
<rect x="104" y="72" width="8" height="8" transform="rotate(-180 104 72)" fill="#F7F7F7"/>
<rect x="104" y="200" width="8" height="8" transform="rotate(-180 104 200)" fill="#F5F5F5"/>
<rect x="104" y="8" width="8" height="8" transform="rotate(-180 104 8)" fill="#F7F7F7"/>
<rect x="104" y="136" width="8" height="8" transform="rotate(-180 104 136)" fill="#F7F7F7"/>
<rect x="40" y="120" width="8" height="8" transform="rotate(-180 40 120)" fill="#F5F5F5"/>
<rect x="40" y="248" width="8" height="8" transform="rotate(-180 40 248)" fill="#F5F5F5"/>
<rect x="40" y="56" width="8" height="8" transform="rotate(-180 40 56)" fill="#F5F5F5"/>
<rect x="40" y="184" width="8" height="8" transform="rotate(-180 40 184)" fill="#F5F5F5"/>
<rect x="40" y="88" width="8" height="8" transform="rotate(-180 40 88)" fill="#F5F5F5"/>
<rect x="40" y="216" width="8" height="8" transform="rotate(-180 40 216)" fill="#F5F5F5"/>
<rect x="40" y="24" width="8" height="8" transform="rotate(-180 40 24)" fill="#F5F5F5"/>
<rect x="40" y="152" width="8" height="8" transform="rotate(-180 40 152)" fill="#F5F5F5"/>
<rect x="40" y="104" width="8" height="8" transform="rotate(-180 40 104)" fill="#F5F5F5"/>
<rect x="40" y="232" width="8" height="8" transform="rotate(-180 40 232)" fill="#F5F5F5"/>
<rect x="40" y="40" width="8" height="8" transform="rotate(-180 40 40)" fill="#F5F5F5"/>
<rect x="40" y="168" width="8" height="8" transform="rotate(-180 40 168)" fill="#F5F5F5"/>
<rect x="40" y="72" width="8" height="8" transform="rotate(-180 40 72)" fill="#F5F5F5"/>
<rect x="40" y="200" width="8" height="8" transform="rotate(-180 40 200)" fill="#F5F5F5"/>
<rect x="40" y="8" width="8" height="8" transform="rotate(-180 40 8)" fill="#F5F5F5"/>
<rect x="40" y="136" width="8" height="8" transform="rotate(-180 40 136)" fill="#F5F5F5"/>
<rect x="232" y="120" width="8" height="8" transform="rotate(-180 232 120)" fill="#FAFAFA"/>
<rect x="232" y="248" width="8" height="8" transform="rotate(-180 232 248)" fill="#F5F5F5"/>
<rect x="232" y="56" width="8" height="8" transform="rotate(-180 232 56)" fill="#FCFCFC"/>
<rect x="232" y="184" width="8" height="8" transform="rotate(-180 232 184)" fill="#F7F7F7"/>
<rect x="232" y="88" width="8" height="8" transform="rotate(-180 232 88)" fill="#FAFAFA"/>
<rect x="232" y="216" width="8" height="8" transform="rotate(-180 232 216)" fill="#F5F5F5"/>
<rect x="232" y="24" width="8" height="8" transform="rotate(-180 232 24)" fill="#FCFCFC"/>
<rect x="232" y="152" width="8" height="8" transform="rotate(-180 232 152)" fill="#F7F7F7"/>
<rect x="232" y="104" width="8" height="8" transform="rotate(-180 232 104)" fill="#FAFAFA"/>
<rect x="232" y="232" width="8" height="8" transform="rotate(-180 232 232)" fill="#F5F5F5"/>
<rect x="232" y="40" width="8" height="8" transform="rotate(-180 232 40)" fill="#FCFCFC"/>
<rect x="232" y="168" width="8" height="8" transform="rotate(-180 232 168)" fill="#F7F7F7"/>
<rect x="232" y="72" width="8" height="8" transform="rotate(-180 232 72)" fill="#FAFAFA"/>
<rect x="232" y="200" width="8" height="8" transform="rotate(-180 232 200)" fill="#F5F5F5"/>
<rect x="232" y="8" width="8" height="8" transform="rotate(-180 232 8)" fill="#FCFCFC"/>
<rect x="232" y="136" width="8" height="8" transform="rotate(-180 232 136)" fill="#F7F7F7"/>
<rect x="136" y="120" width="8" height="8" transform="rotate(-180 136 120)" fill="#FAFAFA"/>
<rect x="136" y="248" width="8" height="8" transform="rotate(-180 136 248)" fill="#F5F5F5"/>
<rect x="136" y="56" width="8" height="8" transform="rotate(-180 136 56)" fill="#FAFAFA"/>
<rect x="136" y="184" width="8" height="8" transform="rotate(-180 136 184)" fill="#F7F7F7"/>
<rect x="136" y="88" width="8" height="8" transform="rotate(-180 136 88)" fill="#FAFAFA"/>
<rect x="136" y="216" width="8" height="8" transform="rotate(-180 136 216)" fill="#F5F5F5"/>
<rect x="136" y="24" width="8" height="8" transform="rotate(-180 136 24)" fill="#FAFAFA"/>
<rect x="136" y="152" width="8" height="8" transform="rotate(-180 136 152)" fill="#F7F7F7"/>
<rect x="136" y="104" width="8" height="8" transform="rotate(-180 136 104)" fill="#FAFAFA"/>
<rect x="136" y="232" width="8" height="8" transform="rotate(-180 136 232)" fill="#F5F5F5"/>
<rect x="136" y="40" width="8" height="8" transform="rotate(-180 136 40)" fill="#FAFAFA"/>
<rect x="136" y="168" width="8" height="8" transform="rotate(-180 136 168)" fill="#F7F7F7"/>
<rect x="136" y="72" width="8" height="8" transform="rotate(-180 136 72)" fill="#FAFAFA"/>
<rect x="136" y="200" width="8" height="8" transform="rotate(-180 136 200)" fill="#F5F5F5"/>
<rect x="136" y="8" width="8" height="8" transform="rotate(-180 136 8)" fill="#FAFAFA"/>
<rect x="136" y="136" width="8" height="8" transform="rotate(-180 136 136)" fill="#F7F7F7"/>
<rect x="184" y="120" width="8" height="8" transform="rotate(-180 184 120)" fill="#FAFAFA"/>
<rect x="184" y="248" width="8" height="8" transform="rotate(-180 184 248)" fill="#F5F5F5"/>
<rect x="184" y="56" width="8" height="8" transform="rotate(-180 184 56)" fill="#FAFAFA"/>
<rect x="184" y="184" width="8" height="8" transform="rotate(-180 184 184)" fill="#F7F7F7"/>
<rect x="184" y="88" width="8" height="8" transform="rotate(-180 184 88)" fill="#FAFAFA"/>
<rect x="184" y="216" width="8" height="8" transform="rotate(-180 184 216)" fill="#F5F5F5"/>
<rect x="184" y="24" width="8" height="8" transform="rotate(-180 184 24)" fill="#FAFAFA"/>
<rect x="184" y="152" width="8" height="8" transform="rotate(-180 184 152)" fill="#F7F7F7"/>
<rect x="184" y="104" width="8" height="8" transform="rotate(-180 184 104)" fill="#FAFAFA"/>
<rect x="184" y="232" width="8" height="8" transform="rotate(-180 184 232)" fill="#F5F5F5"/>
<rect x="184" y="40" width="8" height="8" transform="rotate(-180 184 40)" fill="#FAFAFA"/>
<rect x="184" y="168" width="8" height="8" transform="rotate(-180 184 168)" fill="#F7F7F7"/>
<rect x="184" y="72" width="8" height="8" transform="rotate(-180 184 72)" fill="#FAFAFA"/>
<rect x="184" y="200" width="8" height="8" transform="rotate(-180 184 200)" fill="#F5F5F5"/>
<rect x="184" y="8" width="8" height="8" transform="rotate(-180 184 8)" fill="#FAFAFA"/>
<rect x="184" y="136" width="8" height="8" transform="rotate(-180 184 136)" fill="#F7F7F7"/>
<rect x="88" y="120" width="8" height="8" transform="rotate(-180 88 120)" fill="#F7F7F7"/>
<rect x="88" y="248" width="8" height="8" transform="rotate(-180 88 248)" fill="#F5F5F5"/>
<rect x="88" y="56" width="8" height="8" transform="rotate(-180 88 56)" fill="#F7F7F7"/>
<rect x="88" y="184" width="8" height="8" transform="rotate(-180 88 184)" fill="#F7F7F7"/>
<rect x="88" y="88" width="8" height="8" transform="rotate(-180 88 88)" fill="#F7F7F7"/>
<rect x="88" y="216" width="8" height="8" transform="rotate(-180 88 216)" fill="#F5F5F5"/>
<rect x="88" y="24" width="8" height="8" transform="rotate(-180 88 24)" fill="#F7F7F7"/>
<rect x="88" y="152" width="8" height="8" transform="rotate(-180 88 152)" fill="#F7F7F7"/>
<rect x="88" y="104" width="8" height="8" transform="rotate(-180 88 104)" fill="#F7F7F7"/>
<rect x="88" y="232" width="8" height="8" transform="rotate(-180 88 232)" fill="#F5F5F5"/>
<rect x="88" y="40" width="8" height="8" transform="rotate(-180 88 40)" fill="#F7F7F7"/>
<rect x="88" y="168" width="8" height="8" transform="rotate(-180 88 168)" fill="#F7F7F7"/>
<rect x="88" y="72" width="8" height="8" transform="rotate(-180 88 72)" fill="#F7F7F7"/>
<rect x="88" y="200" width="8" height="8" transform="rotate(-180 88 200)" fill="#F5F5F5"/>
<rect x="88" y="8" width="8" height="8" transform="rotate(-180 88 8)" fill="#F7F7F7"/>
<rect x="88" y="136" width="8" height="8" transform="rotate(-180 88 136)" fill="#F7F7F7"/>
<rect x="24" y="120" width="8" height="8" transform="rotate(-180 24 120)" fill="#F5F5F5"/>
<rect x="24" y="248" width="8" height="8" transform="rotate(-180 24 248)" fill="#F5F5F5"/>
<rect x="24" y="56" width="8" height="8" transform="rotate(-180 24 56)" fill="#F5F5F5"/>
<rect x="24" y="184" width="8" height="8" transform="rotate(-180 24 184)" fill="#F5F5F5"/>
<rect x="24" y="88" width="8" height="8" transform="rotate(-180 24 88)" fill="#F5F5F5"/>
<rect x="24" y="216" width="8" height="8" transform="rotate(-180 24 216)" fill="#F5F5F5"/>
<rect x="24" y="24" width="8" height="8" transform="rotate(-180 24 24)" fill="#F5F5F5"/>
<rect x="24" y="152" width="8" height="8" transform="rotate(-180 24 152)" fill="#F5F5F5"/>
<rect x="24" y="104" width="8" height="8" transform="rotate(-180 24 104)" fill="#F5F5F5"/>
<rect x="24" y="232" width="8" height="8" transform="rotate(-180 24 232)" fill="#F5F5F5"/>
<rect x="24" y="40" width="8" height="8" transform="rotate(-180 24 40)" fill="#F5F5F5"/>
<rect x="24" y="168" width="8" height="8" transform="rotate(-180 24 168)" fill="#F5F5F5"/>
<rect x="24" y="72" width="8" height="8" transform="rotate(-180 24 72)" fill="#F5F5F5"/>
<rect x="24" y="200" width="8" height="8" transform="rotate(-180 24 200)" fill="#F5F5F5"/>
<rect x="24" y="8" width="8" height="8" transform="rotate(-180 24 8)" fill="#F5F5F5"/>
<rect x="24" y="136" width="8" height="8" transform="rotate(-180 24 136)" fill="#F5F5F5"/>
<rect x="216" y="120" width="8" height="8" transform="rotate(-180 216 120)" fill="#FAFAFA"/>
<rect x="216" y="248" width="8" height="8" transform="rotate(-180 216 248)" fill="#F5F5F5"/>
<rect x="216" y="56" width="8" height="8" transform="rotate(-180 216 56)" fill="#FCFCFC"/>
<rect x="216" y="184" width="8" height="8" transform="rotate(-180 216 184)" fill="#F7F7F7"/>
<rect x="216" y="88" width="8" height="8" transform="rotate(-180 216 88)" fill="#FAFAFA"/>
<rect x="216" y="216" width="8" height="8" transform="rotate(-180 216 216)" fill="#F5F5F5"/>
<rect x="216" y="24" width="8" height="8" transform="rotate(-180 216 24)" fill="#FCFCFC"/>
<rect x="216" y="152" width="8" height="8" transform="rotate(-180 216 152)" fill="#F7F7F7"/>
<rect x="216" y="104" width="8" height="8" transform="rotate(-180 216 104)" fill="#FAFAFA"/>
<rect x="216" y="232" width="8" height="8" transform="rotate(-180 216 232)" fill="#F5F5F5"/>
<rect x="216" y="40" width="8" height="8" transform="rotate(-180 216 40)" fill="#FCFCFC"/>
<rect x="216" y="168" width="8" height="8" transform="rotate(-180 216 168)" fill="#F7F7F7"/>
<rect x="216" y="72" width="8" height="8" transform="rotate(-180 216 72)" fill="#FAFAFA"/>
<rect x="216" y="200" width="8" height="8" transform="rotate(-180 216 200)" fill="#F5F5F5"/>
<rect x="216" y="8" width="8" height="8" transform="rotate(-180 216 8)" fill="#FCFCFC"/>
<rect x="216" y="136" width="8" height="8" transform="rotate(-180 216 136)" fill="#F7F7F7"/>
<rect x="120" y="120" width="8" height="8" transform="rotate(-180 120 120)" fill="#F7F7F7"/>
<rect x="120" y="248" width="8" height="8" transform="rotate(-180 120 248)" fill="#F5F5F5"/>
<rect x="120" y="56" width="8" height="8" transform="rotate(-180 120 56)" fill="#F7F7F7"/>
<rect x="120" y="184" width="8" height="8" transform="rotate(-180 120 184)" fill="#F7F7F7"/>
<rect x="120" y="88" width="8" height="8" transform="rotate(-180 120 88)" fill="#F7F7F7"/>
<rect x="120" y="216" width="8" height="8" transform="rotate(-180 120 216)" fill="#F5F5F5"/>
<rect x="120" y="24" width="8" height="8" transform="rotate(-180 120 24)" fill="#F7F7F7"/>
<rect x="120" y="152" width="8" height="8" transform="rotate(-180 120 152)" fill="#F7F7F7"/>
<rect x="120" y="104" width="8" height="8" transform="rotate(-180 120 104)" fill="#F7F7F7"/>
<rect x="120" y="232" width="8" height="8" transform="rotate(-180 120 232)" fill="#F5F5F5"/>
<rect x="120" y="40" width="8" height="8" transform="rotate(-180 120 40)" fill="#F7F7F7"/>
<rect x="120" y="168" width="8" height="8" transform="rotate(-180 120 168)" fill="#F7F7F7"/>
<rect x="120" y="72" width="8" height="8" transform="rotate(-180 120 72)" fill="#F7F7F7"/>
<rect x="120" y="200" width="8" height="8" transform="rotate(-180 120 200)" fill="#F5F5F5"/>
<rect x="120" y="8" width="8" height="8" transform="rotate(-180 120 8)" fill="#F7F7F7"/>
<rect x="120" y="136" width="8" height="8" transform="rotate(-180 120 136)" fill="#F7F7F7"/>
<rect x="56" y="120" width="8" height="8" transform="rotate(-180 56 120)" fill="#F5F5F5"/>
<rect x="56" y="248" width="8" height="8" transform="rotate(-180 56 248)" fill="#F5F5F5"/>
<rect x="56" y="56" width="8" height="8" transform="rotate(-180 56 56)" fill="#F5F5F5"/>
<rect x="56" y="184" width="8" height="8" transform="rotate(-180 56 184)" fill="#F5F5F5"/>
<rect x="56" y="88" width="8" height="8" transform="rotate(-180 56 88)" fill="#F5F5F5"/>
<rect x="56" y="216" width="8" height="8" transform="rotate(-180 56 216)" fill="#F5F5F5"/>
<rect x="56" y="24" width="8" height="8" transform="rotate(-180 56 24)" fill="#F5F5F5"/>
<rect x="56" y="152" width="8" height="8" transform="rotate(-180 56 152)" fill="#F5F5F5"/>
<rect x="56" y="104" width="8" height="8" transform="rotate(-180 56 104)" fill="#F5F5F5"/>
<rect x="56" y="232" width="8" height="8" transform="rotate(-180 56 232)" fill="#F5F5F5"/>
<rect x="56" y="40" width="8" height="8" transform="rotate(-180 56 40)" fill="#F5F5F5"/>
<rect x="56" y="168" width="8" height="8" transform="rotate(-180 56 168)" fill="#F5F5F5"/>
<rect x="56" y="72" width="8" height="8" transform="rotate(-180 56 72)" fill="#F5F5F5"/>
<rect x="56" y="200" width="8" height="8" transform="rotate(-180 56 200)" fill="#F5F5F5"/>
<rect x="56" y="8" width="8" height="8" transform="rotate(-180 56 8)" fill="#F5F5F5"/>
<rect x="56" y="136" width="8" height="8" transform="rotate(-180 56 136)" fill="#F5F5F5"/>
<rect x="168" y="120" width="8" height="8" transform="rotate(-180 168 120)" fill="#FAFAFA"/>
<rect x="168" y="248" width="8" height="8" transform="rotate(-180 168 248)" fill="#F5F5F5"/>
<rect x="168" y="56" width="8" height="8" transform="rotate(-180 168 56)" fill="#FAFAFA"/>
<rect x="168" y="184" width="8" height="8" transform="rotate(-180 168 184)" fill="#F7F7F7"/>
<rect x="168" y="88" width="8" height="8" transform="rotate(-180 168 88)" fill="#FAFAFA"/>
<rect x="168" y="216" width="8" height="8" transform="rotate(-180 168 216)" fill="#F5F5F5"/>
<rect x="168" y="24" width="8" height="8" transform="rotate(-180 168 24)" fill="#FAFAFA"/>
<rect x="168" y="152" width="8" height="8" transform="rotate(-180 168 152)" fill="#F7F7F7"/>
<rect x="168" y="104" width="8" height="8" transform="rotate(-180 168 104)" fill="#FAFAFA"/>
<rect x="168" y="232" width="8" height="8" transform="rotate(-180 168 232)" fill="#F5F5F5"/>
<rect x="168" y="40" width="8" height="8" transform="rotate(-180 168 40)" fill="#FAFAFA"/>
<rect x="168" y="168" width="8" height="8" transform="rotate(-180 168 168)" fill="#F7F7F7"/>
<rect x="168" y="72" width="8" height="8" transform="rotate(-180 168 72)" fill="#FAFAFA"/>
<rect x="168" y="200" width="8" height="8" transform="rotate(-180 168 200)" fill="#F5F5F5"/>
<rect x="168" y="8" width="8" height="8" transform="rotate(-180 168 8)" fill="#FAFAFA"/>
<rect x="168" y="136" width="8" height="8" transform="rotate(-180 168 136)" fill="#F7F7F7"/>
<rect x="72" y="120" width="8" height="8" transform="rotate(-180 72 120)" fill="#F7F7F7"/>
<rect x="72" y="248" width="8" height="8" transform="rotate(-180 72 248)" fill="#F5F5F5"/>
<rect x="72" y="56" width="8" height="8" transform="rotate(-180 72 56)" fill="#F7F7F7"/>
<rect x="72" y="184" width="8" height="8" transform="rotate(-180 72 184)" fill="#F7F7F7"/>
<rect x="72" y="88" width="8" height="8" transform="rotate(-180 72 88)" fill="#F7F7F7"/>
<rect x="72" y="216" width="8" height="8" transform="rotate(-180 72 216)" fill="#F5F5F5"/>
<rect x="72" y="24" width="8" height="8" transform="rotate(-180 72 24)" fill="#F7F7F7"/>
<rect x="72" y="152" width="8" height="8" transform="rotate(-180 72 152)" fill="#F7F7F7"/>
<rect x="72" y="104" width="8" height="8" transform="rotate(-180 72 104)" fill="#F7F7F7"/>
<rect x="72" y="232" width="8" height="8" transform="rotate(-180 72 232)" fill="#F5F5F5"/>
<rect x="72" y="40" width="8" height="8" transform="rotate(-180 72 40)" fill="#F7F7F7"/>
<rect x="72" y="168" width="8" height="8" transform="rotate(-180 72 168)" fill="#F7F7F7"/>
<rect x="72" y="72" width="8" height="8" transform="rotate(-180 72 72)" fill="#F7F7F7"/>
<rect x="72" y="200" width="8" height="8" transform="rotate(-180 72 200)" fill="#F5F5F5"/>
<rect x="72" y="8" width="8" height="8" transform="rotate(-180 72 8)" fill="#F7F7F7"/>
<rect x="72" y="136" width="8" height="8" transform="rotate(-180 72 136)" fill="#F7F7F7"/>
<rect x="8" y="120" width="8" height="8" transform="rotate(-180 8 120)" fill="#F5F5F5"/>
<rect x="8" y="248" width="8" height="8" transform="rotate(-180 8 248)" fill="#F5F5F5"/>
<rect x="8" y="56" width="8" height="8" transform="rotate(-180 8 56)" fill="#F5F5F5"/>
<rect x="8" y="184" width="8" height="8" transform="rotate(-180 8 184)" fill="#F5F5F5"/>
<rect x="8" y="88" width="8" height="8" transform="rotate(-180 8 88)" fill="#F5F5F5"/>
<rect x="8" y="216" width="8" height="8" transform="rotate(-180 8 216)" fill="#F5F5F5"/>
<rect x="8" y="24" width="8" height="8" transform="rotate(-180 8 24)" fill="#F5F5F5"/>
<rect x="8" y="152" width="8" height="8" transform="rotate(-180 8 152)" fill="#F5F5F5"/>
<rect x="8" y="104" width="8" height="8" transform="rotate(-180 8 104)" fill="#F5F5F5"/>
<rect x="8" y="232" width="8" height="8" transform="rotate(-180 8 232)" fill="#F5F5F5"/>
<rect x="8" y="40" width="8" height="8" transform="rotate(-180 8 40)" fill="#F5F5F5"/>
<rect x="8" y="168" width="8" height="8" transform="rotate(-180 8 168)" fill="#F5F5F5"/>
<rect x="8" y="72" width="8" height="8" transform="rotate(-180 8 72)" fill="#F5F5F5"/>
<rect x="8" y="200" width="8" height="8" transform="rotate(-180 8 200)" fill="#F5F5F5"/>
<rect x="8" y="8" width="8" height="8" transform="rotate(-180 8 8)" fill="#F5F5F5"/>
<rect x="8" y="136" width="8" height="8" transform="rotate(-180 8 136)" fill="#F5F5F5"/>
</svg>
